<svg xmlns="http://www.w3.org/2000/svg" xmlns:xlink="http://www.w3.org/1999/xlink" width="20" height="20" viewBox="0 0 20 20"><defs><style>.a{fill:#fff;stroke:#707070;}.b{clip-path:url(#a);}.c{fill:#af8f4b;}</style><clipPath id="a"><rect class="a" width="20" height="20" transform="translate(0.261 0.409)"/></clipPath></defs><g class="b" transform="translate(-0.261 -0.409)"><g transform="translate(0.539 0.547)"><path class="c" d="M15.5,3.263h-.414L13.305.953A2.466,2.466,0,0,0,11.367,0H8.214A2.466,2.466,0,0,0,6.276.953L4.494,3.263H4.079A4.084,4.084,0,0,0,0,7.343V15.5a4.084,4.084,0,0,0,4.079,4.079H15.5A4.084,4.084,0,0,0,19.581,15.5V7.343A4.084,4.084,0,0,0,15.5,3.263ZM7.568,1.95a.821.821,0,0,1,.646-.318h3.153a.822.822,0,0,1,.646.318l1.013,1.314H6.555ZM17.949,15.5A2.448,2.448,0,0,1,15.5,17.949H4.079A2.448,2.448,0,0,1,1.632,15.5V7.343A2.448,2.448,0,0,1,4.079,4.9H15.5a2.448,2.448,0,0,1,2.448,2.448Z" transform="translate(0 0)"/><path class="c" d="M10.9,8a4.9,4.9,0,1,0,4.9,4.9A4.9,4.9,0,0,0,10.9,8Zm0,8.159A3.263,3.263,0,1,1,14.159,12.9,3.263,3.263,0,0,1,10.9,16.159Z" transform="translate(-1.105 -1.473)"/></g></g></svg>