<svg xmlns="http://www.w3.org/2000/svg" xmlns:xlink="http://www.w3.org/1999/xlink" width="18" height="18" viewBox="0 0 18 18"><defs><style>.a{fill:#fff;stroke:#707070;}.b{clip-path:url(#a);}.c{fill:#af8f4b;}</style><clipPath id="a"><rect class="a" width="18" height="18" transform="translate(-20886 -7920)"/></clipPath></defs><g class="b" transform="translate(20886 7920)"><path class="c" d="M10.25,15A3.754,3.754,0,0,0,14,11.25V4.682a2.979,2.979,0,0,0-.879-2.122L11.439.879A2.979,2.979,0,0,0,9.318,0H5.75A3.754,3.754,0,0,0,2,3.75v7.5A3.754,3.754,0,0,0,5.75,15ZM3.5,11.25V3.75A2.25,2.25,0,0,1,5.75,1.5s3.689.01,3.75.018V3A1.5,1.5,0,0,0,11,4.5h1.482c.007.061.018,6.75.018,6.75a2.25,2.25,0,0,1-2.25,2.25H5.75A2.25,2.25,0,0,1,3.5,11.25ZM17,6v8.25A3.754,3.754,0,0,1,13.25,18H6.5a.75.75,0,0,1,0-1.5h6.75a2.25,2.25,0,0,0,2.25-2.25V6A.75.75,0,0,1,17,6Z" transform="translate(-20886 -7920)"/></g></svg>