<svg xmlns="http://www.w3.org/2000/svg" xmlns:xlink="http://www.w3.org/1999/xlink" width="20" height="20" viewBox="0 0 20 20"><defs><style>.a{fill:#fff;stroke:#707070;}.b{clip-path:url(#a);}.c{fill:#af8f4b;}</style><clipPath id="a"><rect class="a" width="20" height="20" transform="translate(6372 -8453)"/></clipPath></defs><g class="b" transform="translate(-6372 8453)"><g transform="translate(6372 -8453)"><path class="c" d="M17.833,3.333H15.25A4.174,4.174,0,0,0,11.167,0H9.5A4.174,4.174,0,0,0,5.417,3.333H2.833A.833.833,0,0,0,2.833,5h.833V15.833A4.172,4.172,0,0,0,7.833,20h5A4.172,4.172,0,0,0,17,15.833V5h.833a.833.833,0,0,0,0-1.667ZM9.5,1.667h1.667a2.5,2.5,0,0,1,2.358,1.667H7.142A2.5,2.5,0,0,1,9.5,1.667Zm5.833,14.167a2.5,2.5,0,0,1-2.5,2.5h-5a2.5,2.5,0,0,1-2.5-2.5V5h10Z"/><path class="c" d="M9.833,16.667a.833.833,0,0,0,.833-.833v-5a.833.833,0,0,0-1.667,0v5A.833.833,0,0,0,9.833,16.667Z" transform="translate(-1.167 -1.667)"/><path class="c" d="M13.833,16.667a.833.833,0,0,0,.833-.833v-5a.833.833,0,0,0-1.667,0v5A.833.833,0,0,0,13.833,16.667Z" transform="translate(-1.833 -1.667)"/></g></g></svg>