<svg xmlns="http://www.w3.org/2000/svg" xmlns:xlink="http://www.w3.org/1999/xlink" width="18" height="18" viewBox="0 0 18 18"><defs><style>.a{fill:#fff;stroke:#2c2c2c;}.b{clip-path:url(#a);}.c{fill:#af8f4b;}</style><clipPath id="a"><rect class="a" width="18" height="18" transform="translate(-13241.029 -17286.029)"/></clipPath></defs><g class="b" transform="translate(13241.029 17286.029)"><g transform="translate(-13240.989 -17285.99)"><path class="c" d="M15.219.707,6.1,9.831A3.716,3.716,0,0,0,5,12.476v1.005a.748.748,0,0,0,.748.748H6.753a3.716,3.716,0,0,0,2.645-1.1L18.522,4.01a2.339,2.339,0,0,0,0-3.3,2.39,2.39,0,0,0-3.3,0Zm2.245,2.245L8.341,12.076a2.26,2.26,0,0,1-1.587.657H6.5v-.257a2.26,2.26,0,0,1,.657-1.587l9.124-9.124a.859.859,0,0,1,1.187,0,.84.84,0,0,1,0,1.187Z" transform="translate(-1.258 -0.011)"/><path class="c" d="M17.212,6.719a.748.748,0,0,0-.748.748v3.757H13.47a2.245,2.245,0,0,0-2.245,2.245v2.993H3.742A2.245,2.245,0,0,1,1.5,14.218V3.742A2.245,2.245,0,0,1,3.742,1.5h6.766a.748.748,0,1,0,0-1.5H3.742A3.746,3.746,0,0,0,0,3.742V14.218A3.746,3.746,0,0,0,3.742,17.96H12.23a3.718,3.718,0,0,0,2.646-1.1l1.988-1.989a3.718,3.718,0,0,0,1.1-2.645V7.468A.748.748,0,0,0,17.212,6.719Zm-3.394,9.087a2.226,2.226,0,0,1-1.1.6V13.47a.748.748,0,0,1,.748-.748h2.937a2.257,2.257,0,0,1-.6,1.1Z"/></g></g></svg>