<svg xmlns="http://www.w3.org/2000/svg" xmlns:xlink="http://www.w3.org/1999/xlink" width="18" height="18" viewBox="0 0 18 18"><defs><style>.a{fill:#fff;stroke:#707070;}.b{clip-path:url(#a);}.c{fill:#af8f4b;}</style><clipPath id="a"><rect class="a" width="18" height="18" transform="translate(-15274.73 -16663)"/></clipPath></defs><g class="b" transform="translate(15274.73 16663)"><path class="c" d="M10.9,18.269a.761.761,0,0,1-.457-.152L7.395,15.834a.761.761,0,0,1-.3-.609V10.946L1.75,4.938A2.969,2.969,0,0,1,3.969,0H14.779A2.969,2.969,0,0,1,17,4.939l-5.338,6.008v6.562A.761.761,0,0,1,10.9,18.269ZM8.613,14.844l1.522,1.142V10.657a.761.761,0,0,1,.193-.505L15.86,3.927a1.446,1.446,0,0,0-1.082-2.4H3.969a1.446,1.446,0,0,0-1.082,2.4l5.533,6.225a.761.761,0,0,1,.192.505Z" transform="translate(-15275.241 -16663)"/></g></svg>