<svg xmlns="http://www.w3.org/2000/svg" xmlns:xlink="http://www.w3.org/1999/xlink" width="20" height="20" viewBox="0 0 20 20"><defs><style>.a{fill:#fff;stroke:#707070;}.b{clip-path:url(#a);}.c{fill:#af8f4b;}</style><clipPath id="a"><rect class="a" width="20" height="20" transform="translate(6312 -8573)"/></clipPath></defs><g class="b" transform="translate(-6312 8573)"><g transform="translate(6312 -8573)"><path class="c" d="M15.768,0H4.15A4.155,4.155,0,0,0,0,4.15V15.768a4.155,4.155,0,0,0,4.15,4.15H15.768a4.155,4.155,0,0,0,4.15-4.15V4.15A4.155,4.155,0,0,0,15.768,0ZM4.15,1.66H15.768a2.49,2.49,0,0,1,2.49,2.49V15.768a2.449,2.449,0,0,1-.249,1.066l-7.6-7.6a4.15,4.15,0,0,0-5.869,0L1.66,12.105V4.15A2.49,2.49,0,0,1,4.15,1.66Zm0,16.6a2.49,2.49,0,0,1-2.49-2.49V14.452L5.708,10.4a2.49,2.49,0,0,1,3.522,0l7.6,7.605a2.449,2.449,0,0,1-1.066.249Z"/><path class="c" d="M15.4,9.309a2.9,2.9,0,1,0-2.9-2.9A2.9,2.9,0,0,0,15.4,9.309Zm0-4.15A1.245,1.245,0,1,1,14.16,6.4,1.245,1.245,0,0,1,15.4,5.16Z" transform="translate(-2.126 -0.595)"/></g></g></svg>