<svg xmlns="http://www.w3.org/2000/svg" width="20" height="20" viewBox="0 0 20 20">
  <path id="Union_2" data-name="Union 2" d="M0,10A10,10,0,1,1,10,20,10,10,0,0,1,0,10Zm1.667,0A8.333,8.333,0,1,0,10,1.667,8.333,8.333,0,0,0,1.667,10ZM7.292,13.19a.508.508,0,0,1-.074-.571,7.774,7.774,0,0,0,0-4.754.471.471,0,0,1,.643-.646,7.768,7.768,0,0,0,4.754,0,.471.471,0,0,1,.647.643,7.751,7.751,0,0,0,0,4.753.511.511,0,0,1-.072.572.5.5,0,0,1-.571.076,7.795,7.795,0,0,0-4.754,0,.89.89,0,0,1-.273.054A.407.407,0,0,1,7.292,13.19Zm.95-.977a.437.437,0,0,0,.211-.015,8.729,8.729,0,0,1,3.575,0c.186.039.208.005.17-.175a8.542,8.542,0,0,1,0-3.574c.04-.191,0-.205-.175-.169A8.335,8.335,0,0,1,9.185,8.4c-.318-.042-.633-.1-.946-.143A8.67,8.67,0,0,1,8.241,12.213ZM3.866,8.93a.427.427,0,0,1-.4-.565A6.3,6.3,0,0,1,4.4,6.323,6.98,6.98,0,0,1,10.171,3.2a.445.445,0,0,1,.507.491.457.457,0,0,1-.5.386A6.178,6.178,0,0,0,4.343,8.474c-.1.326-.228.456-.465.456Z" fill="#af8f4b"/>
</svg>
