<svg xmlns="http://www.w3.org/2000/svg" width="20" height="20" viewBox="0 0 20 20">
  <g id="login" transform="translate(44 44) rotate(180)">
    <path id="Path_10944" data-name="Path 10944" d="M34.195,149.6a1.034,1.034,0,1,0,1.463,1.463l3.9-3.9a1.034,1.034,0,0,0,0-1.463l-3.9-3.9a1.034,1.034,0,1,0-1.463,1.463l2.135,2.135h-11.3a1.034,1.034,0,1,0,0,2.069h11.3Z" transform="translate(0 -112.426)" fill="#af8f4b"/>
    <path id="Path_10945" data-name="Path 10945" d="M195.379,24h-9.655A1.724,1.724,0,0,0,184,25.724V27.1a1.034,1.034,0,1,0,2.069,0V26.069h8.966V41.931h-8.966V40.9a1.034,1.034,0,0,0-2.069,0v1.379A1.724,1.724,0,0,0,185.724,44h9.655a1.724,1.724,0,0,0,1.724-1.724V25.724A1.724,1.724,0,0,0,195.379,24Z" transform="translate(-153.103)" fill="#af8f4b"/>
  </g>
</svg>
