<svg xmlns="http://www.w3.org/2000/svg" xmlns:xlink="http://www.w3.org/1999/xlink" width="20" height="20" viewBox="0 0 20 20"><defs><style>.a{fill:#fff;stroke:#707070;}.b{clip-path:url(#a);}.c{fill:#af8f4b;}</style><clipPath id="a"><rect class="a" width="20" height="20" transform="translate(-14630 -7830)"/></clipPath></defs><g class="b" transform="translate(-14610 -7810) rotate(180)"><g transform="translate(-14630 -7830)"><path class="c" d="M33.713,149.213a.986.986,0,1,0,1.394,1.394l3.717-3.717a.986.986,0,0,0,0-1.394l-3.717-3.717a.986.986,0,1,0-1.394,1.394l2.034,2.034H24.986a.986.986,0,1,0,0,1.971H35.747Z" transform="translate(39.112 155.721) rotate(180)"/><path class="c" d="M194.841,24h-9.2A1.643,1.643,0,0,0,184,25.643v1.314a.986.986,0,1,0,1.971,0v-.986h8.542V41.084h-8.542V40.1a.986.986,0,1,0-1.971,0v1.314a1.643,1.643,0,0,0,1.643,1.643h9.2a1.643,1.643,0,0,0,1.643-1.643V25.643A1.643,1.643,0,0,0,194.841,24Z" transform="translate(-177.43 -24)"/></g></g></svg>