<svg xmlns="http://www.w3.org/2000/svg" xmlns:xlink="http://www.w3.org/1999/xlink" width="28" height="28" viewBox="0 0 28 28"><defs><style>.a{fill:#fff;stroke:#af8f4b;stroke-width:1.5px;}.b{clip-path:url(#a);}.c{fill:none;}.d,.e{stroke:none;}.e{fill:#af8f4b;}</style><clipPath id="a"><rect class="a" width="28" height="28" transform="translate(-20312.105 -9077.104)"/></clipPath></defs><g class="b" transform="translate(20312.105 9077.104)"><g transform="translate(-20311.494 -9076.324)"><g transform="translate(7.201 5.041)"><g class="c" transform="translate(-3.998)"><path class="d" d="M10,8.007A4,4,0,1,0,6,4,4,4,0,0,0,10,8.007Zm0-6.673A2.669,2.669,0,1,1,7.335,4,2.669,2.669,0,0,1,10,1.335Z"/><path class="e" d="M 10.00363731384277 8.007278442382812 C 7.793407440185547 8.005068778991699 6.002207279205322 6.213878631591797 5.999997138977051 4.003638744354248 C 5.999997138977051 1.792488694190979 7.792487144470215 -1.255645770470437e-06 10.00363731384277 -1.255645770470437e-06 C 12.21478748321533 -1.255645770470437e-06 14.0072774887085 1.792488694190979 14.0072774887085 4.003638744354248 C 14.0072774887085 6.214788913726807 12.21478748321533 8.007278442382812 10.00363731384277 8.007278442382812 Z M 10.00363731384277 1.334548711776733 C 8.529537200927734 1.334548711776733 7.334547519683838 2.529538631439209 7.334547519683838 4.003638744354248 C 7.334547519683838 5.477738857269287 8.529537200927734 6.672728538513184 10.00363731384277 6.672728538513184 C 11.47773742675781 6.672728538513184 12.67272758483887 5.477738857269287 12.67272758483887 4.003638744354248 C 12.67272758483887 2.529538631439209 11.47773742675781 1.334548711776733 10.00363731384277 1.334548711776733 Z"/></g><g class="c" transform="translate(-3 -4.658)"><path class="d" d="M9.005,14A6.012,6.012,0,0,0,3,20.005a.667.667,0,1,0,1.335,0,4.671,4.671,0,1,1,9.342,0,.667.667,0,0,0,1.335,0A6.012,6.012,0,0,0,9.005,14Z"/><path class="e" d="M 9.005458831787109 13.9999942779541 C 12.32065868377686 14.00367546081543 15.00723838806152 16.69025421142578 15.01091861724854 20.00545501708984 C 15.01091861724854 20.37398529052734 14.71216869354248 20.6727352142334 14.3436393737793 20.6727352142334 C 13.97511863708496 20.6727352142334 13.67636871337891 20.37398529052734 13.67636871337891 20.00545501708984 C 13.67636871337891 17.42578506469727 11.58512878417969 15.33454513549805 9.005458831787109 15.33454513549805 C 6.425788879394531 15.33454513549805 4.334548950195312 17.42578506469727 4.334548950195312 20.00545501708984 C 4.334548950195312 20.37398529052734 4.035799026489258 20.6727352142334 3.667268753051758 20.6727352142334 C 3.298748970031738 20.6727352142334 2.999999046325684 20.37398529052734 2.999999046325684 20.00545501708984 C 3.003679275512695 16.69025421142578 5.690258979797363 14.00367546081543 9.005458831787109 13.9999942779541 Z"/></g></g></g></g></svg>