<svg xmlns="http://www.w3.org/2000/svg" width="20" height="21.539" viewBox="0 0 20 21.539">
  <g id="gift-outline" transform="translate(-48 -32)">
    <path id="Path_10956" data-name="Path 10956" d="M243.462,32a3.462,3.462,0,1,1,0,6.923H240V35.462A3.465,3.465,0,0,1,243.462,32Zm0,5.385a1.923,1.923,0,1,0-1.923-1.923v1.923Z" transform="translate(-182.769)" fill="#af8f4b"/>
    <path id="Path_10957" data-name="Path 10957" d="M131.462,32a3.465,3.465,0,0,1,3.462,3.462v3.462h-3.462a3.462,3.462,0,1,1,0-6.923Zm1.923,5.385V35.462a1.923,1.923,0,1,0-1.923,1.923Z" transform="translate(-76.154)" fill="#af8f4b"/>
    <path id="Rectangle_7879" data-name="Rectangle 7879" d="M-13.692-16H1.692A2.31,2.31,0,0,1,4-13.692v2.308A2.31,2.31,0,0,1,1.692-9.077H-13.692A2.31,2.31,0,0,1-16-11.385v-2.308A2.31,2.31,0,0,1-13.692-16ZM1.692-10.615a.77.77,0,0,0,.769-.769v-2.308a.77.77,0,0,0-.769-.769H-13.692a.77.77,0,0,0-.769.769v2.308a.77.77,0,0,0,.769.769Z" transform="translate(64 53.385)" fill="#af8f4b"/>
    <path id="Path_10958" data-name="Path 10958" d="M93.846,266.769H83.077A3.08,3.08,0,0,1,80,263.692v-6.923a.769.769,0,0,1,1.538,0v6.923a1.54,1.54,0,0,0,1.538,1.538H93.846a1.54,1.54,0,0,0,1.538-1.538v-6.923a.769.769,0,0,1,1.538,0v6.923A3.08,3.08,0,0,1,93.846,266.769Z" transform="translate(-30.462 -213.231)" fill="#af8f4b"/>
    <path id="Line_249" data-name="Line 249" d="M-15.231.154A.769.769,0,0,1-16-.615V-15.231A.769.769,0,0,1-15.231-16a.769.769,0,0,1,.769.769V-.615A.769.769,0,0,1-15.231.154Z" transform="translate(73.231 53.385)" fill="#af8f4b"/>
  </g>
</svg>
