<svg xmlns="http://www.w3.org/2000/svg" xmlns:xlink="http://www.w3.org/1999/xlink" width="24" height="24" viewBox="0 0 24 24"><defs><style>.a{fill:#fff;stroke:#707070;}.b{clip-path:url(#a);}.c{fill:#d8a31c;}</style><clipPath id="a"><rect class="a" width="24" height="24" transform="translate(-18116.484 -15606.641)"/></clipPath></defs><g class="b" transform="translate(18116.484 15606.641)"><g transform="translate(-18116 -15605.949)"><path class="c" d="M66.556,60.026H60.019v6.537h6.537V60.026Zm-1.337,5.2H61.356V61.363h3.862v3.862Z" transform="translate(-57.344 -57.351)"/><path class="c" d="M118.344,118.351h1.337v1.337h-1.337Z" transform="translate(-113.069 -113.077)"/><path class="c" d="M60.019,311.9h6.537v-6.537H60.019Zm1.337-5.2h3.862v3.862H61.356Z" transform="translate(-57.344 -291.756)"/><path class="c" d="M331.66,320.366h-1.337V324.9h-1.309V323.9h-1.337v.995h-1.632v1.337h5.616Z" transform="translate(-311.511 -306.087)"/><path class="c" d="M118.344,363.69h1.337v1.337h-1.337Z" transform="translate(-113.069 -347.48)"/><path class="c" d="M311.925,60.026h-6.537v6.537h6.537Zm-1.337,5.2h-3.862V61.363h3.862Z" transform="translate(-291.776 -57.351)"/><path class="c" d="M363.714,118.351h1.337v1.337h-1.337Z" transform="translate(-347.502 -113.077)"/><path class="c" d="M120.021,241.021h3.862v1.337h-3.862Z" transform="translate(-114.671 -230.279)"/><path class="c" d="M60.018,241.021h1.337v1.337H60.018Z" transform="translate(-57.343 -230.279)"/><path class="c" d="M236.672,241.021h4.977v1.337h-4.977Z" transform="translate(-226.123 -230.279)"/><path class="c" d="M381.611,243.22v-2.2h-3.286v1.337h1.948v.862Z" transform="translate(-361.462 -230.279)"/><path class="c" d="M241.04,120.029h1.337v3.862H241.04Z" transform="translate(-230.296 -114.68)"/><path class="c" d="M241.04,60.025h1.337v1.337H241.04Z" transform="translate(-230.296 -57.35)"/><path class="c" d="M242.377,309.227h.995V307.89h-.995v-2.525H241.04V311.9h2.452v-1.337h-1.114Z" transform="translate(-230.296 -291.755)"/><path class="c" d="M309.4,307.7h1.337V306.7h1.085v-1.337H308.32V306.7H309.4Z" transform="translate(-294.577 -291.756)"/><path class="c" d="M407.007.022V1.359h3.345V4.7h1.337V.022Z" transform="translate(-388.866 -0.022)"/><path class="c" d="M1.337,1.359H4.682V.022H0V4.7H1.337Z" transform="translate(0 -0.022)"/><path class="c" d="M410.352,410.358h-3.345V411.7h4.682v-4.68h-1.337Z" transform="translate(-388.866 -388.874)"/><path class="c" d="M1.337,407.015H0v4.68H4.682v-1.337H1.337Z" transform="translate(0 -388.874)"/></g></g></svg>