<svg xmlns="http://www.w3.org/2000/svg" xmlns:xlink="http://www.w3.org/1999/xlink" width="20" height="20" viewBox="0 0 20 20"><defs><style>.a{fill:#fff;stroke:#2c2c2c;}.b{clip-path:url(#a);}.c{fill:#af8f4b;}</style><clipPath id="a"><rect class="a" width="20" height="20" transform="translate(-17409.209 -16544.209)"/></clipPath></defs><g class="b" transform="translate(17409.209 16544.209)"><g transform="translate(-17408.184 -16544)"><path class="c" d="M11.264,8a3.264,3.264,0,1,0,3.264,3.264A3.264,3.264,0,0,0,11.264,8Zm0,4.9A1.632,1.632,0,1,1,12.9,11.264,1.632,1.632,0,0,1,11.264,12.9Z" transform="translate(-2.454 -1.472)"/><path class="c" d="M17.6,11.342l-.362-.209a7.425,7.425,0,0,0,0-2.684L17.6,8.24A2.449,2.449,0,1,0,15.148,4l-.363.21a7.325,7.325,0,0,0-2.325-1.34V2.448a2.448,2.448,0,0,0-4.9,0v.419A7.325,7.325,0,0,0,5.241,4.21L4.876,4A2.449,2.449,0,1,0,2.429,8.241l.362.209a7.425,7.425,0,0,0,0,2.684l-.362.209a2.449,2.449,0,0,0,2.448,4.243l.363-.21a7.325,7.325,0,0,0,2.325,1.34v.419a2.448,2.448,0,1,0,4.9,0v-.419a7.325,7.325,0,0,0,2.324-1.343l.365.211A2.449,2.449,0,0,0,17.6,11.341ZM15.517,8.261a5.751,5.751,0,0,1,0,3.06.816.816,0,0,0,.379.924l.884.511a.816.816,0,1,1-.816,1.414l-.886-.512a.816.816,0,0,0-.991.135,5.7,5.7,0,0,1-2.646,1.53.816.816,0,0,0-.613.791v1.022a.816.816,0,0,1-1.632,0V16.113a.816.816,0,0,0-.613-.791A5.7,5.7,0,0,1,5.938,13.79a.816.816,0,0,0-.991-.135l-.884.512a.816.816,0,1,1-.816-1.413l.885-.511a.816.816,0,0,0,.379-.924,5.751,5.751,0,0,1,0-3.06.816.816,0,0,0-.379-.921l-.884-.511a.816.816,0,0,1,.816-1.414l.886.512a.816.816,0,0,0,.991-.131,5.7,5.7,0,0,1,2.646-1.53A.816.816,0,0,0,9.2,3.469V2.448a.816.816,0,1,1,1.632,0V3.469a.816.816,0,0,0,.613.791,5.7,5.7,0,0,1,2.646,1.533.816.816,0,0,0,.991.135l.884-.512A.816.816,0,1,1,16.78,6.83L15.9,7.34a.816.816,0,0,0-.378.921Z" transform="translate(-1.203)"/></g></g></svg>