<svg xmlns="http://www.w3.org/2000/svg" xmlns:xlink="http://www.w3.org/1999/xlink" width="20" height="20" viewBox="0 0 20 20"><defs><style>.a{fill:#fff;stroke:#707070;}.b{clip-path:url(#a);}.c{fill:#af8f4b;}</style><clipPath id="a"><rect class="a" width="20" height="20" transform="translate(-14463 -7899)"/></clipPath></defs><g class="b" transform="translate(14463 7899)"><path class="c" d="M17.524,10.7V9.509a7.509,7.509,0,0,0-15.018,0V10.7a4.172,4.172,0,0,0,1.669,7.99,1.669,1.669,0,0,0,1.669-1.669V12.012a1.669,1.669,0,0,0-1.669-1.669V9.509a5.84,5.84,0,0,1,11.681,0v.834a1.669,1.669,0,0,0-1.669,1.669v5.006h-2.5a.834.834,0,0,0,0,1.669h4.172a4.172,4.172,0,0,0,1.669-7.99ZM4.174,17.018h0a2.5,2.5,0,0,1,0-5.006Zm11.681,0V12.012a2.5,2.5,0,0,1,0,5.006Z" transform="translate(-14463.015 -7899)"/></g></svg>