<svg xmlns="http://www.w3.org/2000/svg" xmlns:xlink="http://www.w3.org/1999/xlink" width="20" height="20" viewBox="0 0 20 20"><defs><style>.a{fill:#fff;stroke:#707070;}.b{clip-path:url(#a);}.c{fill:#af8f4b;}</style><clipPath id="a"><rect class="a" width="20" height="20" transform="translate(-14476 -7848)"/></clipPath></defs><g class="b" transform="translate(14476 7848)"><g transform="translate(-14476 -7848)"><path class="c" d="M10,0A10,10,0,1,0,20,10,10,10,0,0,0,10,0Zm0,18.333A8.333,8.333,0,1,1,18.333,10,8.333,8.333,0,0,1,10,18.333Z" transform="translate(0 0)"/><path class="c" d="M11.667,10h-.833a.833.833,0,0,0,0,1.667h.833v5a.833.833,0,0,0,1.667,0v-5A1.667,1.667,0,0,0,11.667,10Z" transform="translate(-1.667 -1.667)"/><circle class="c" cx="1.25" cy="1.25" r="1.25" transform="translate(8.75 4.167)"/></g></g></svg>