<svg xmlns="http://www.w3.org/2000/svg" xmlns:xlink="http://www.w3.org/1999/xlink" width="20" height="20" viewBox="0 0 20 20"><defs><style>.a{fill:#fff;stroke:#2c2c2c;}.b{clip-path:url(#a);}.c{fill:#af8f4b;}</style><clipPath id="a"><rect class="a" width="20" height="20" transform="translate(-17459 -16544)"/></clipPath></defs><g class="b" transform="translate(17459 16544)"><g transform="translate(-17459 -16544)"><path class="c" d="M19.438,12a.818.818,0,0,0-.823.731,8.319,8.319,0,0,1-14.235,5.1H6.667a.833.833,0,1,0,0-1.666H3.335a1.666,1.666,0,0,0-1.666,1.666v3.332a.833.833,0,1,0,1.666,0V19.132a9.977,9.977,0,0,0,16.936-6.216A.839.839,0,0,0,19.438,12Z" transform="translate(-0.275 -2)"/><path class="c" d="M17.769,0a.833.833,0,0,0-.833.833V2.863A9.977,9.977,0,0,0,0,9.079.839.839,0,0,0,.832,10a.818.818,0,0,0,.823-.731,8.319,8.319,0,0,1,14.235-5.1H13.6a.833.833,0,1,0,0,1.666h3.332A1.666,1.666,0,0,0,18.6,4.165V.832A.833.833,0,0,0,17.769,0Z" transform="translate(0.004 0.004)"/></g></g></svg>