<svg xmlns="http://www.w3.org/2000/svg" xmlns:xlink="http://www.w3.org/1999/xlink" width="24" height="24" viewBox="0 0 24 24"><defs><style>.a{fill:#fff;stroke:#707070;}.b{clip-path:url(#a);}.c{fill:#af8f4b;}</style><clipPath id="a"><rect class="a" width="24" height="24" transform="translate(-20066.449 -16109.729)"/></clipPath></defs><g class="b" transform="translate(20066.449 16109.729)"><g transform="translate(-20063.117 -16108.921)"><path class="c" d="M10.61,4.533,6.48.4A1.377,1.377,0,0,0,4.534.4L.4,4.533A1.377,1.377,0,0,0,2.35,6.481L4.128,4.7V15.146a1.377,1.377,0,0,0,2.753,0V4.7l1.79,1.78a1.377,1.377,0,1,0,1.947-1.948Z" transform="translate(16.524 0) rotate(90)"/><path class="c" d="M10.61,4.533,6.48.4A1.377,1.377,0,0,0,4.534.4L.4,4.533A1.377,1.377,0,0,0,2.35,6.481L4.128,4.7V15.146a1.377,1.377,0,0,0,2.753,0V4.7l1.79,1.78a1.377,1.377,0,1,0,1.947-1.948Z" transform="translate(0 23.007) rotate(-90)"/></g></g></svg>