<svg xmlns="http://www.w3.org/2000/svg" xmlns:xlink="http://www.w3.org/1999/xlink" width="20" height="20" viewBox="0 0 20 20"><defs><style>.a{fill:#fff;stroke:#2c2c2c;}.b{clip-path:url(#a);}.c{fill:#af8f4b;}</style><clipPath id="a"><rect class="a" width="20" height="20" transform="translate(-17573 -16573)"/></clipPath></defs><g class="b" transform="translate(17573 16573)"><path class="c" d="M15.817,19.979H4.162A4.167,4.167,0,0,1,0,15.817V4.162A4.167,4.167,0,0,1,4.162,0H15.817a4.167,4.167,0,0,1,4.162,4.162V15.817A4.167,4.167,0,0,1,15.817,19.979ZM4.162,1.665a2.5,2.5,0,0,0-2.5,2.5V15.817a2.5,2.5,0,0,0,2.5,2.5H15.817a2.5,2.5,0,0,0,2.5-2.5V4.162a2.5,2.5,0,0,0-2.5-2.5ZM7.777,14.156a1.971,1.971,0,0,1-.987-.269A1.926,1.926,0,0,1,5.821,12.2V7.774A1.945,1.945,0,0,1,8.734,6.085l4.394,2.194a1.945,1.945,0,0,1,.041,3.4L8.694,13.916A1.831,1.831,0,0,1,7.777,14.156ZM7.756,7.5a.261.261,0,0,0-.131.035.272.272,0,0,0-.14.243V12.2a.281.281,0,0,0,.416.244l4.475-2.238a.261.261,0,0,0,.1-.221.271.271,0,0,0-.141-.243L7.946,7.553A.385.385,0,0,0,7.756,7.5Z" transform="translate(-17573 -16573)"/></g></svg>