<svg xmlns="http://www.w3.org/2000/svg" xmlns:xlink="http://www.w3.org/1999/xlink" width="20" height="20" viewBox="0 0 20 20"><defs><style>.a{fill:#fff;stroke:#707070;}.b{clip-path:url(#a);}.c{fill:#af8f4b;}</style><clipPath id="a"><rect class="a" width="20" height="20"/></clipPath></defs><g class="b"><path class="c" d="M13.727,16.091a.909.909,0,0,1-.909.909H9.182a.909.909,0,0,1,0-1.818h3.636A.909.909,0,0,1,13.727,16.091Zm-.266-8.824a.909.909,0,0,0-1.285,0L11,8.442,9.824,7.266A.909.909,0,1,0,8.539,8.552L9.714,9.727,8.539,10.9a.909.909,0,1,0,1.286,1.286L11,11.013l1.175,1.175A.909.909,0,1,0,13.461,10.9L12.285,9.727l1.175-1.175A.909.909,0,0,0,13.461,7.266Zm6.63,7.915H16.454a.909.909,0,1,0,0,1.818h3.636a.909.909,0,0,0,0-1.818Zm-.533-5.454,1.175-1.175a.909.909,0,1,0-1.286-1.286L18.273,8.442,17.1,7.266a.909.909,0,1,0-1.286,1.286l1.176,1.175L15.812,10.9A.909.909,0,1,0,17.1,12.188l1.175-1.176,1.175,1.175A.909.909,0,1,0,20.733,10.9ZM5.545,15.182H1.909a.909.909,0,0,0,0,1.818H5.545a.909.909,0,1,0,0-1.818Zm.643-7.915a.909.909,0,0,0-1.285,0L3.727,8.442,2.552,7.266A.909.909,0,1,0,1.266,8.552L2.442,9.727,1.266,10.9a.909.909,0,1,0,1.286,1.286l1.175-1.176L4.9,12.188A.909.909,0,1,0,6.188,10.9L5.013,9.727,6.188,8.552A.909.909,0,0,0,6.188,7.266Z" transform="translate(-1 -2)"/></g></svg>