<svg xmlns="http://www.w3.org/2000/svg" xmlns:xlink="http://www.w3.org/1999/xlink" width="20" height="18.844" viewBox="0 0 20 18.844">
  <defs>
    <clipPath id="clip-path">
      <rect id="Rectangle_7879" data-name="Rectangle 7879" width="20" height="18.844" fill="#af8f4b"/>
    </clipPath>
  </defs>
  <g id="Group_8363" data-name="Group 8363" transform="translate(-18 -469.699)">
    <g id="Group_8362" data-name="Group 8362" transform="translate(18 469.699)">
      <g id="Group_8361" data-name="Group 8361" clip-path="url(#clip-path)">
        <path id="Path_10956" data-name="Path 10956" d="M19.871,2.748A3.988,3.988,0,0,0,16.09,0H3.973A3.8,3.8,0,0,0,1.928.549,3.729,3.729,0,0,0,0,3.879Q0,8.7,0,13.517a3.4,3.4,0,0,0,.415,1.646,3.939,3.939,0,0,0,2.472,1.981.236.236,0,0,1,.2.264c0,.214-.012.43,0,.644a.834.834,0,0,0,1.666,0c.011-.136,0-.273,0-.41,0-.354,0-.354.352-.354h9.795c.059,0,.117,0,.176,0,.123,0,.176.056.176.177,0,.182-.006.364,0,.546a.835.835,0,0,0,1.67,0c.009-.175,0-.351,0-.527,0-.285,0-.281.271-.362A3.9,3.9,0,0,0,19.335,15.6a3.478,3.478,0,0,0,.665-1.8V3.531a5.451,5.451,0,0,0-.129-.783m-3.876,12.92H4.015a2.344,2.344,0,0,1-2.434-2.43q0-4.595,0-9.19A2.343,2.343,0,0,1,4.015,1.619H16a2.344,2.344,0,0,1,2.444,2.439q0,4.585,0,9.17a2.344,2.344,0,0,1-2.444,2.439" transform="translate(0 0)" fill="#af8f4b"/>
        <path id="Path_10957" data-name="Path 10957" d="M61.766,62.542c0,.26,0,.52,0,.78a.779.779,0,1,1-1.559-.005q-.006-.77,0-1.54a.779.779,0,1,1,1.559.005c0,.253,0,.507,0,.76" transform="translate(-57.064 -57.808)" fill="#af8f4b"/>
        <path id="Path_10958" data-name="Path 10958" d="M61.759,212.213c0,.26,0,.52,0,.78a.779.779,0,1,1-1.558,0q-.008-.78,0-1.559a.779.779,0,1,1,1.558,0c0,.26,0,.52,0,.78" transform="translate(-57.056 -199.665)" fill="#af8f4b"/>
        <path id="Path_10959" data-name="Path 10959" d="M138.355,68.1q-.3-.18-.607-.349c-.081-.044-.1-.083-.071-.181a3.806,3.806,0,0,0,0-2.227c-.031-.1-.01-.146.079-.195.217-.117.431-.24.64-.37a.778.778,0,0,0-.79-1.34c-.205.112-.408.227-.606.351a.161.161,0,0,1-.245-.029,3.76,3.76,0,0,0-1.913-1.1c-.105-.024-.128-.075-.125-.174.007-.234.005-.468,0-.7a.78.78,0,1,0-1.559-.007c0,.241-.005.481,0,.722,0,.094-.025.137-.118.159a3.8,3.8,0,0,0-1.943,1.123c-.073.077-.122.063-.2.018-.2-.12-.4-.238-.607-.35a.781.781,0,1,0-.771,1.357c.2.119.4.239.608.348.088.046.1.088.069.181a3.838,3.838,0,0,0,0,2.246c.027.089.01.124-.065.166q-.324.178-.64.37a.778.778,0,1,0,.772,1.352c.189-.1.377-.2.555-.322a.22.22,0,0,1,.338.039,3.806,3.806,0,0,0,1.532.969c.151.053.369.031.441.155s.015.316.015.478h.006c0,.111,0,.221,0,.332a.78.78,0,1,0,1.56.009c0-.241.005-.481,0-.722,0-.093.023-.138.117-.16a3.784,3.784,0,0,0,1.929-1.109.151.151,0,0,1,.23-.024c.188.116.379.225.572.333a.782.782,0,1,0,.789-1.347m-4.416.694a2.341,2.341,0,1,1,2.342-2.346,2.35,2.35,0,0,1-2.342,2.346" transform="translate(-122.37 -57.808)" fill="#af8f4b"/>
        <path id="Path_10960" data-name="Path 10960" d="M208.481,151.566a.78.78,0,1,1-.779-.781.782.782,0,0,1,.779.781" transform="translate(-196.13 -142.922)" fill="#af8f4b"/>
      </g>
    </g>
  </g>
</svg>
