<svg xmlns="http://www.w3.org/2000/svg" xmlns:xlink="http://www.w3.org/1999/xlink" width="24" height="24" viewBox="0 0 24 24"><defs><style>.a{fill:#fff;stroke:#707070;}.b{clip-path:url(#a);}.c{fill:#af8f4b;}</style><clipPath id="a"><rect class="a" width="24" height="24" transform="translate(-16803.711 -14740.71)"/></clipPath></defs><g class="b" transform="translate(16803.711 14740.71)"><g transform="translate(-16803.232 -14740.231)"><path class="c" d="M17.985,9.5a1.356,1.356,0,1,0,1.356,1.356A1.358,1.358,0,0,0,17.985,9.5Zm0,1.808a.452.452,0,1,1,.452-.452A.453.453,0,0,1,17.985,11.308Zm3.571-8.589A1.356,1.356,0,1,0,20.2,1.363,1.358,1.358,0,0,0,21.556,2.719Zm0-1.808a.452.452,0,1,1-.452.452A.453.453,0,0,1,21.556.911Zm0,5.018a1.356,1.356,0,1,0,1.356,1.356A1.358,1.358,0,0,0,21.556,5.929Zm0,1.808a.452.452,0,1,1,.452-.452A.453.453,0,0,1,21.556,7.737ZM13.871,4.148A1.673,1.673,0,1,0,12.2,2.475,1.674,1.674,0,0,0,13.871,4.148Zm0-2.441a.768.768,0,1,1-.768.768A.769.769,0,0,1,13.871,1.707ZM7.685,16.332a.452.452,0,1,1-.452-.452A.452.452,0,0,1,7.685,16.332ZM22.413,13.08l-1.617.17a1.4,1.4,0,0,0-1.125.818l-.386.868-.559-.769a1.4,1.4,0,0,0-1.271-.566l-2.156.227h0a1.4,1.4,0,0,0-1.125.817l-.879,1.974-3.163-3.163.823.221a1.4,1.4,0,0,0,1.343-.36l1.533-1.533a1.4,1.4,0,0,0,.36-1.343h0l-.246-.917.917.247A1.4,1.4,0,0,0,16.2,9.412l1.536-1.536a1.4,1.4,0,0,0,.36-1.344v0l-.246-.917L19.3,6a.452.452,0,0,0,.437-.117L21.265,4.35a.451.451,0,0,0-.2-.756L18.34,2.864A1.4,1.4,0,0,0,17,3.224L15.463,4.757A1.4,1.4,0,0,0,15.1,6.1l.246.918-.918-.247a1.4,1.4,0,0,0-1.344.36L11.554,8.666a1.4,1.4,0,0,0-.36,1.344l.246.917-.938-.251a1.36,1.36,0,0,0-1.31.351l-.746.746L6.306,9.631l1.976-.855a1.4,1.4,0,0,0,.829-1.116h0L9.361,5.5a1.4,1.4,0,0,0-.552-1.277h0l-.762-.566.872-.376A1.4,1.4,0,0,0,9.747,2.17L9.934.555A.453.453,0,0,0,9.306.088L6.719,1.205a1.4,1.4,0,0,0-.829,1.117L5.64,4.476a1.4,1.4,0,0,0,.553,1.277l.763.566L6.065,6.7a1.36,1.36,0,0,0-.809,1.089L5.074,9.366.033,21.691a.452.452,0,0,0,.1.491l.606.606a.453.453,0,0,0,.491.1l12.323-5.04,1.573-.165a1.36,1.36,0,0,0,1.1-.8l.4-.888.559.77a1.386,1.386,0,0,0,1.271.566l2.156-.227h0a1.4,1.4,0,0,0,1.125-.818l1.145-2.575a.452.452,0,0,0-.46-.633ZM18.106,3.737l1.966.527-.795.795-1.695-.454-.073-.271a.487.487,0,0,1,.6-.6ZM16.1,5.4l.6-.6.527,1.966v0a.488.488,0,0,1-.126.469l-.6.6-.527-1.966A.488.488,0,0,1,16.1,5.4ZM14.2,7.646l1.422.382.073.272a.487.487,0,0,1-.6.6l-1.422-.382L13.6,8.242A.485.485,0,0,1,14.2,7.646Zm-2,1.659.6-.6.528,1.965a.488.488,0,0,1-.126.47l-.6.6-.528-1.965a.488.488,0,0,1,.126-.47ZM9.833,11.666a.453.453,0,0,1,.437-.117l1.442.386.073.272a.487.487,0,0,1-.6.6l-1.966-.527ZM7.077,2.035l1.868-.807-.1.838a.488.488,0,0,1-.29.391L7.207,3.04l-.226-.168a.485.485,0,0,1,.1-.838ZM6.732,5.026a.488.488,0,0,1-.193-.447l.1-.838L8.27,4.954a.488.488,0,0,1,.193.447l-.1.838ZM6.154,7.9a.453.453,0,0,1,.27-.363L7.794,6.94l.226.168a.485.485,0,0,1-.1.838l-1.868.808ZM5.677,10.28l3.969,3.969L4.864,12.268ZM1.164,21.936l-.181-.181.817-2,2.326.963Zm4.149-1.7L2.143,18.921l.565-1.381,4.565,1.891Zm6.292-2.58-2.32-.961a.452.452,0,0,0-.346.835l1.479.613-1.959.8L3.05,16.7l.565-1.381,1.566.648a.452.452,0,0,0,.346-.835l-1.569-.65.565-1.38,6.795,2.814,1.314,1.314Zm3.79-1.138a.453.453,0,0,1-.366.266l-.859.09L15,15.012a.487.487,0,0,1,.839-.088l.165.227Zm2.957-.083a.488.488,0,0,1-.445-.2h0l-1.2-1.647.839-.088a.488.488,0,0,1,.445.2l1.2,1.647Zm2.55-.513a.488.488,0,0,1-.839.088L19.9,15.78l.6-1.346a.488.488,0,0,1,.394-.286l.839-.088Z" transform="translate(0.001 -0.007)"/></g></g></svg>